<?xml version="1.0" standalone="no"?>
<!DOCTYPE svg PUBLIC "-//W3C//DTD SVG 20010904//EN"
 "http://www.w3.org/TR/2001/REC-SVG-20010904/DTD/svg10.dtd">
<svg version="1.0" xmlns="http://www.w3.org/2000/svg"
 width="1510.000000pt" height="1255.000000pt" viewBox="0 0 1510.000000 1255.000000"
 preserveAspectRatio="xMidYMid meet">

<g transform="translate(0.000000,1255.000000) scale(0.100000,-0.100000)"
fill="#000000" stroke="none">
<path d="M1515 12524 c-176 -24 -301 -60 -470 -137 -522 -237 -886 -730 -960
-1300 -13 -104 -15 -521 -15 -3485 0 -2237 4 -3397 10 -3457 44 -382 209 -725
480 -995 269 -270 603 -431 990 -479 52 -7 354 -11 783 -11 l698 0 -6 -47 c-9
-76 -173 -1986 -180 -2103 -7 -102 3 -213 25 -292 16 -56 71 -130 115 -156 35
-20 51 -22 121 -19 68 3 93 9 156 39 147 70 244 147 505 401 137 133 705 676
1262 1207 l1012 965 3787 5 c3576 5 3792 6 3875 23 352 71 637 220 877 457
215 212 359 455 441 745 49 174 49 121 49 3715 0 2214 -3 3392 -10 3465 -14
149 -26 210 -61 318 -205 628 -749 1071 -1404 1147 -61 6 -2029 10 -6035 9
-4943 -1 -5962 -3 -6045 -15z m10261 -2925 c196 -35 372 -204 419 -400 67
-286 -112 -577 -397 -644 -55 -13 -591 -15 -4225 -15 -2982 0 -4177 3 -4215
11 -155 32 -304 148 -370 289 -78 163 -78 307 -1 470 66 138 222 261 368 288
74 14 8343 15 8421 1z m20 -2874 c92 -21 170 -62 236 -124 74 -68 111 -122
145 -208 23 -60 27 -82 27 -183 0 -101 -4 -123 -27 -183 -53 -135 -153 -243
-277 -298 -116 -52 148 -49 -4330 -49 -3677 0 -4172 2 -4229 15 -236 56 -411
275 -411 515 0 236 176 458 406 514 90 22 8369 23 8460 1z"/>
</g>
</svg>
