<?xml version="1.0" standalone="no"?>
<!DOCTYPE svg PUBLIC "-//W3C//DTD SVG 20010904//EN"
 "http://www.w3.org/TR/2001/REC-SVG-20010904/DTD/svg10.dtd">
<svg version="1.0" xmlns="http://www.w3.org/2000/svg"
 width="1396.000000pt" height="1102.000000pt" viewBox="0 0 1396.000000 1102.000000"
 preserveAspectRatio="xMidYMid meet">

<g transform="translate(0.000000,1102.000000) scale(0.100000,-0.100000)"
fill="#000000" stroke="none">
<path d="M373 10970 c-202 -43 -323 -212 -323 -450 0 -36 5 -93 11 -126 25
-138 892 -3583 913 -3629 34 -74 87 -128 158 -164 50 -25 445 -127 1863 -480
990 -247 1852 -460 1915 -475 133 -31 208 -62 238 -101 30 -38 28 -57 -10 -94
-43 -42 -97 -60 -380 -130 -134 -33 -979 -240 -1878 -461 -899 -221 -1648
-406 -1665 -410 -100 -24 -194 -95 -244 -184 -23 -40 -75 -236 -241 -906 -116
-470 -316 -1269 -443 -1775 l-231 -920 -1 -165 0 -166 38 -76 c68 -138 169
-203 335 -214 108 -8 212 7 322 44 47 16 717 273 1490 570 2823 1085 11146
4280 11170 4287 58 17 216 98 273 138 90 64 163 147 200 224 29 61 32 77 32
159 -1 82 -4 97 -33 157 -57 116 -161 211 -317 290 -38 20 -209 89 -380 155
-322 124 -12065 4716 -12285 4804 -186 74 -280 99 -390 103 -52 2 -114 0 -137
-5z"/>
</g>
</svg>
